<?xml version="1.0" encoding="UTF-8"?>
<svg version="1.1" xmlns="http://www.w3.org/2000/svg" width="32" height="32">
<path d="M0 0 C0.71671875 -0.04576172 1.4334375 -0.09152344 2.171875 -0.13867188 C5.20106629 -0.20270809 7.36681472 -0.20462296 9.86987305 1.61523438 C12.03829341 4.00022751 13.18025566 6.04135217 13.73828125 9.2109375 C13.68027344 10.06945313 13.62226563 10.92796875 13.5625 11.8125 C13.49482422 13.12347656 13.49482422 13.12347656 13.42578125 14.4609375 C13.36777344 15.11320313 13.30976563 15.76546875 13.25 16.4375 C13.91 16.4375 14.57 16.4375 15.25 16.4375 C15.25 19.4075 15.25 22.3775 15.25 25.4375 C14.59 25.4375 13.93 25.4375 13.25 25.4375 C12.92 27.0875 12.59 28.7375 12.25 30.4375 C5.65 30.4375 -0.95 30.4375 -7.75 30.4375 C-8.08 28.7875 -8.41 27.1375 -8.75 25.4375 C-9.41 25.4375 -10.07 25.4375 -10.75 25.4375 C-10.75 22.4675 -10.75 19.4975 -10.75 16.4375 C-10.09 16.4375 -9.43 16.4375 -8.75 16.4375 C-8.76160156 15.36628906 -8.77320313 14.29507812 -8.78515625 13.19140625 C-8.79453299 11.79427257 -8.80363331 10.39713701 -8.8125 9 C-8.82506836 7.93942383 -8.82506836 7.93942383 -8.83789062 6.85742188 C-8.84653588 5.05056441 -8.80220011 3.24362397 -8.75 1.4375 C-6.70115632 -0.61134368 -2.79472441 0.0713442 0 0 Z M-6.75 2.4375 C-6.75 7.0575 -6.75 11.6775 -6.75 16.4375 C-6.09 16.4375 -5.43 16.4375 -4.75 16.4375 C-4.75 11.8175 -4.75 7.1975 -4.75 2.4375 C-5.41 2.4375 -6.07 2.4375 -6.75 2.4375 Z M-2.75 2.4375 C-2.75 7.0575 -2.75 11.6775 -2.75 16.4375 C1.87 16.4375 6.49 16.4375 11.25 16.4375 C11.25 13.7975 11.25 11.1575 11.25 8.4375 C9.6 8.4375 7.95 8.4375 6.25 8.4375 C6.25 6.4575 6.25 4.4775 6.25 2.4375 C3.28 2.4375 0.31 2.4375 -2.75 2.4375 Z M7.25 4.4375 C7.25 5.0975 7.25 5.7575 7.25 6.4375 C7.91 6.1075 8.57 5.7775 9.25 5.4375 C8.59 5.1075 7.93 4.7775 7.25 4.4375 Z M-8.75 17.4375 C-8.75 19.4175 -8.75 21.3975 -8.75 23.4375 C-6.44 23.4375 -4.13 23.4375 -1.75 23.4375 C-2.41 22.7775 -3.07 22.1175 -3.75 21.4375 C-3.375 19.3125 -3.375 19.3125 -2.75 17.4375 C-4.73 17.4375 -6.71 17.4375 -8.75 17.4375 Z M0.25 17.4375 C1.25 20.4375 1.25 20.4375 1.25 20.4375 Z M3.25 17.4375 C4.24 18.9225 4.24 18.9225 5.25 20.4375 C5.25 19.4475 5.25 18.4575 5.25 17.4375 C4.59 17.4375 3.93 17.4375 3.25 17.4375 Z M10.25 17.4375 C10.25 19.0875 10.25 20.7375 10.25 22.4375 C8.6 22.4375 6.95 22.4375 5.25 22.4375 C5.25 22.7675 5.25 23.0975 5.25 23.4375 C7.89 23.4375 10.53 23.4375 13.25 23.4375 C13.25 21.4575 13.25 19.4775 13.25 17.4375 C12.26 17.4375 11.27 17.4375 10.25 17.4375 Z M2.25 21.4375 C1.92 22.0975 1.59 22.7575 1.25 23.4375 C1.91 23.4375 2.57 23.4375 3.25 23.4375 C2.92 22.7775 2.59 22.1175 2.25 21.4375 Z M-6.75 24.4375 C-6.75 25.7575 -6.75 27.0775 -6.75 28.4375 C-6.09 28.4375 -5.43 28.4375 -4.75 28.4375 C-4.75 27.1175 -4.75 25.7975 -4.75 24.4375 C-5.41 24.4375 -6.07 24.4375 -6.75 24.4375 Z M-2.75 24.4375 C-2.75 25.7575 -2.75 27.0775 -2.75 28.4375 C1.87 28.4375 6.49 28.4375 11.25 28.4375 C11.25 27.1175 11.25 25.7975 11.25 24.4375 C6.63 24.4375 2.01 24.4375 -2.75 24.4375 Z " fill="#000000" transform="translate(13.75,0.5625)"/>
</svg>
